<?xml version="1.0" standalone="no"?><!DOCTYPE svg PUBLIC "-//W3C//DTD SVG 1.1//EN" "http://www.w3.org/Graphics/SVG/1.1/DTD/svg11.dtd"><svg t="1585532961942" class="icon" viewBox="0 0 1024 1024" version="1.1" xmlns="http://www.w3.org/2000/svg" p-id="4262" xmlns:xlink="http://www.w3.org/1999/xlink" width="200" height="200"><defs><style type="text/css"></style></defs><path d="M886.272 843.446857c17.152-8.557714 30.281143 4.571429 12.580571 27.428572s-160 153.161143-398.848 153.161142S78.299429 860.598857 22.308571 793.197714c-15.433143-17.700571 2.304-25.709714 12.580572-18.870857 167.424 101.705143 429.129143 269.129143 851.419428 69.156572z m118.308571-65.718857c8.557714 11.446857 0 61.696-14.848 98.304-14.848 35.986286-36.571429 61.147429-48.566857 70.838857-12.580571 10.276571-21.723429 6.290286-14.848-8.557714s43.995429-106.276571 29.147429-125.696c-14.848-18.870857-84.553143-9.728-109.714286-7.424-24.576 2.304-29.696 4.571429-32-0.585143-5.156571-13.129143 49.700571-35.437714 85.723429-40.009143 35.986286-3.986286 93.696-1.718857 105.142857 13.129143z m-225.133714-253.147429c0 62.866286 73.728 120.576 73.728 120.576l-129.718857 128c-50.870857-48.018286-89.161143-87.990857-89.161143-87.990857a110.592 110.592 0 0 1-14.299428-18.870857c-103.424 161.718857-419.437714 151.442286-419.437715-98.852571 0-233.142857 276.004571-264.557714 387.437715-268.580572V226.304c0-15.433143 5.705143-85.723429-81.152-85.723429 0 0-86.857143 0-124.013715 113.152l-168.009143-15.433142C214.820571 125.732571 321.682286 0 522.825143 0c200.557714 0 256.585143 130.304 256.585143 188.013714v336.566857z m-384 11.995429c0 116.004571 192.585143 143.433143 192.585143-39.424v-92.562286c-77.129143 2.304-192.585143 23.990857-192.585143 131.986286z" fill="" p-id="4263"></path></svg>