<?xml version="1.0" standalone="no"?><!DOCTYPE svg PUBLIC "-//W3C//DTD SVG 1.1//EN" "http://www.w3.org/Graphics/SVG/1.1/DTD/svg11.dtd"><svg t="1585201627441" class="icon" viewBox="0 0 1024 1024" version="1.1" xmlns="http://www.w3.org/2000/svg" p-id="2257" xmlns:xlink="http://www.w3.org/1999/xlink" width="200" height="200"><defs><style type="text/css"></style></defs><path d="M213.333333 512c-25.6 0-42.666667-17.066667-42.666667-42.666667 0-166.4 132.266667-298.666667 298.666667-298.666667 128 0 243.2 85.333333 285.866667 209.066667 8.533333 21.333333-4.266667 46.933333-25.6 55.466667-21.333333 8.533333-46.933333-4.266667-55.466667-25.6C644.266667 315.733333 563.2 256 469.333333 256c-119.466667 0-213.333333 93.866667-213.333333 213.333333C256 494.933333 238.933333 512 213.333333 512z" p-id="2258"></path><path d="M768 853.333333c-25.6 0-42.666667-17.066667-42.666667-42.666667s17.066667-42.666667 42.666667-42.666667c93.866667 0 170.666667-76.8 170.666667-170.666667s-76.8-170.666667-170.666667-170.666667c-12.8 0-29.866667 0-42.666667 4.266667-21.333333 4.266667-46.933333-8.533333-51.2-29.866667-4.266667-21.333333 8.533333-46.933333 29.866667-51.2C725.333333 345.6 746.666667 341.333333 768 341.333333c140.8 0 256 115.2 256 256S908.8 853.333333 768 853.333333z" p-id="2259"></path><path d="M682.666667 853.333333 213.333333 853.333333c-25.6 0-42.666667-17.066667-42.666667-42.666667s17.066667-42.666667 42.666667-42.666667l469.333333 0c25.6 0 42.666667 17.066667 42.666667 42.666667S708.266667 853.333333 682.666667 853.333333z" p-id="2260"></path><path d="M768 853.333333l-85.333333 0c-25.6 0-42.666667-17.066667-42.666667-42.666667s17.066667-42.666667 42.666667-42.666667l85.333333 0c25.6 0 42.666667 17.066667 42.666667 42.666667S793.6 853.333333 768 853.333333z" p-id="2261"></path><path d="M213.333333 853.333333c-119.466667 0-213.333333-93.866667-213.333333-213.333333s93.866667-213.333333 213.333333-213.333333c25.6 0 42.666667 17.066667 42.666667 42.666667s-17.066667 42.666667-42.666667 42.666667c-72.533333 0-128 55.466667-128 128s55.466667 128 128 128c25.6 0 42.666667 17.066667 42.666667 42.666667S238.933333 853.333333 213.333333 853.333333z" p-id="2262"></path></svg>