<?xml version="1.0" standalone="no"?><!DOCTYPE svg PUBLIC "-//W3C//DTD SVG 1.1//EN" "http://www.w3.org/Graphics/SVG/1.1/DTD/svg11.dtd"><svg t="1582179703193" class="icon" viewBox="0 0 1024 1024" version="1.1" xmlns="http://www.w3.org/2000/svg" p-id="4440" xmlns:xlink="http://www.w3.org/1999/xlink" width="200" height="200"><defs><style type="text/css"></style></defs><path d="M650.667 631.467l-123.734-121.6L646.4 390.4l27.733 29.867 243.2-241.067-70.4-70.4L605.867 352l27.733 25.6-119.467 119.467-121.6-121.6L420.267 352l-243.2-245.333-70.4 72.533 243.2 241.067 32-29.867L499.2 509.867 377.6 633.6 352 605.867 106.667 851.2l70.4 68.267 243.2-241.067-29.867-32 123.733-121.6 121.6 121.6-29.866 27.733L851.2 919.467l68.267-68.267-245.334-245.333z" fill="#00C1DE" p-id="4441"></path><path d="M808.533 654.933c19.2-42.666 32-91.733 32-140.8 0-51.2-12.8-98.133-32-140.8L746.667 435.2c6.4 25.6 12.8 51.2 12.8 78.933s-4.267 53.334-12.8 78.934l61.866 61.866zM228.267 371.2c-19.2 42.667-32 91.733-32 140.8 0 51.2 12.8 98.133 32 140.8l61.866-61.867c-8.533-25.6-12.8-51.2-12.8-78.933s4.267-53.333 12.8-78.933L228.267 371.2z m211.2-83.2c25.6-6.4 51.2-12.8 78.933-12.8 27.733 0 53.333 4.267 78.933 12.8l61.867-61.867c-42.667-19.2-91.733-32-140.8-32-51.2 0-98.133 12.8-140.8 32L439.467 288zM659.2 804.267L597.333 742.4c-25.6 6.4-51.2 12.8-78.933 12.8-27.733 0-53.333-4.267-78.933-12.8L377.6 804.267c42.667 19.2 91.733 32 140.8 32s98.133-12.8 140.8-32z m245.333-38.4c49.067-74.667 76.8-162.134 76.8-256 0-91.734-27.733-177.067-74.666-251.734L853.333 313.6c34.134 59.733 53.334 125.867 53.334 200.533s-19.2 140.8-53.334 200.534l51.2 51.2z m-787.2-507.734C70.4 328.533 42.667 416 42.667 509.867s29.866 183.466 76.8 256l51.2-51.2c-34.134-59.734-53.334-128-53.334-200.534 0-74.666 19.2-140.8 53.334-200.533l-53.334-55.467z m396.8-140.8c74.667 0 140.8 19.2 200.534 53.334l51.2-51.2c-72.534-49.067-162.134-76.8-256-76.8-91.734 0-177.067 27.733-251.734 74.666l53.334 53.334c59.733-34.134 128-53.334 202.666-53.334z m0 789.334c-74.666 0-140.8-19.2-200.533-53.334L256 906.667c72.533 46.933 157.867 74.666 251.733 74.666s183.467-29.866 256-76.8l-49.066-51.2c-59.734 34.134-128 53.334-200.534 53.334z" fill="#00C1DE" p-id="4442"></path></svg>