<?xml version="1.0" standalone="no"?><!DOCTYPE svg PUBLIC "-//W3C//DTD SVG 1.1//EN" "http://www.w3.org/Graphics/SVG/1.1/DTD/svg11.dtd"><svg t="1583323092027" class="icon" viewBox="0 0 1024 1024" version="1.1" xmlns="http://www.w3.org/2000/svg" p-id="14939" xmlns:xlink="http://www.w3.org/1999/xlink" width="200" height="200"><defs><style type="text/css"></style></defs><path d="M936.162632 251.395808L527.601172 14.839576a32.148569 32.148569 0 0 0-32.979401 0l-407.107505 236.556232c-10.339238 6.069687-14.008745 17.078206-14.008744 29.102186v473.227857c0 12.02398 3.854136 23.147893 14.331846 29.125265l408.584539 236.671625a32.310119 32.310119 0 0 0 16.224295 4.477259c5.746586 0 11.377778-1.569349 16.547397-4.477259l407.153663-236.671625c10.293081-6.069687 14.147217-17.078206 14.147216-29.125265V280.497994c0-12.02398-3.992608-23.147893-14.331846-29.102186z m-161.181338 161.827541L535.078657 548.856615v271.381925c0 0.438494-0.115393 0.830832-0.115394 1.223168-0.530809 13.939509-3.60027 24.763399-15.647329 27.186658a33.233266 33.233266 0 0 1-17.885959 5.261934h-1.938607A33.648682 33.648682 0 0 1 465.842686 820.261618V541.37913c0-2.261708 0.230787-4.477259 0.669282-6.623574l-215.11616-121.393735c-16.178138-9.208384-25.271129-29.88686-16.062745-45.995763 9.439171-16.039666 28.040568-21.670859 44.103313-12.462474l233.48677 135.402479 233.971422-135.402479c16.062745-9.208384 33.994861-3.715664 43.226324 12.37016s0.946225 36.741222-15.139598 45.949605z" p-id="14940"></path></svg>