<?xml version="1.0" standalone="no"?><!DOCTYPE svg PUBLIC "-//W3C//DTD SVG 1.1//EN" "http://www.w3.org/Graphics/SVG/1.1/DTD/svg11.dtd"><svg t="1583325264257" class="icon" viewBox="0 0 1024 1024" version="1.1" xmlns="http://www.w3.org/2000/svg" p-id="18278" xmlns:xlink="http://www.w3.org/1999/xlink" width="200" height="200"><defs><style type="text/css"></style></defs><path d="M694.610347 0c-181.714571 0-329.133717 147.419145-329.133716 329.133717 0 65.51962 19.451137 125.92052 52.722819 177.107723L20.474881 903.966008c-27.64109 27.64109-27.64109 71.662084 0 99.303175 27.129218 27.64109 71.662084 27.64109 99.303174 0l127.456136-127.456136 65.519621 65.51962c11.773057 11.773057 31.224194 11.773057 42.99725 0 11.773057-11.773057 11.773057-31.224194 0-42.997251l-65.51962-65.51962 103.398151-103.39815 65.51962 65.51962c11.773057 11.773057 31.224194 11.773057 42.99725 0 11.773057-11.773057 11.773057-31.224194 0-42.997251l-65.51962-65.51962 80.875781-80.875781c51.187203 32.75981 112.099975 52.722819 177.619595 52.722819 181.714571 0 329.133717-147.419145 329.133717-329.133716S876.324919 0 694.610347 0z m0 438.674331c-60.4009 0-109.540615-49.139715-109.540614-109.540614s49.139715-109.540615 109.540614-109.540615 109.540615 49.139715 109.540615 109.540615-49.139715 109.540615-109.540615 109.540614z" p-id="18279"></path></svg>