<?xml version="1.0" standalone="no"?><!DOCTYPE svg PUBLIC "-//W3C//DTD SVG 1.1//EN" "http://www.w3.org/Graphics/SVG/1.1/DTD/svg11.dtd"><svg t="1583322929924" class="icon" viewBox="0 0 1024 1024" version="1.1" xmlns="http://www.w3.org/2000/svg" p-id="11211" xmlns:xlink="http://www.w3.org/1999/xlink" width="200" height="200"><defs><style type="text/css"></style></defs><path d="M511.462 574.979c34.791 0 62.998-28.207 62.998-63.002 0-34.789-28.207-62.998-62.998-62.998-34.795 0-63.002 28.208-63.002 62.998-0.001 34.795 28.207 63.002 63.002 63.002z" p-id="11212"></path><path d="M840.232 511.979c21.106-36.52 38.112-73.084 50.359-108.755 36.216-105.488 27.228-192.518-25.308-245.057-52.547-52.548-139.586-61.539-245.087-25.314-35.665 12.245-72.222 29.249-108.735 50.351-36.513-21.102-73.071-38.106-108.736-50.351-105.501-36.223-192.541-27.233-245.087 25.314-52.537 52.539-61.525 139.569-25.309 245.057 12.247 35.671 29.253 72.235 50.359 108.755-21.106 36.52-38.112 73.084-50.359 108.755-36.217 105.488-27.229 192.518 25.309 245.057 31.34 31.341 74.95 47.188 127.43 47.188 35.509 0 75.08-7.255 117.656-21.874 35.665-12.245 72.222-29.249 108.736-50.351 36.513 21.102 73.071 38.106 108.735 50.351 42.582 14.622 82.142 21.874 117.656 21.874 52.473 0 96.094-15.849 127.431-47.188 52.536-52.539 61.524-139.569 25.308-245.057-12.246-35.671-29.252-72.235-50.358-108.755zM641.633 195.233c34.964-12.005 67.93-18.222 96.254-18.222 4.389 0 8.669 0.149 12.825 0.449 29.012 2.096 51.855 11.292 67.895 27.334 16.045 16.045 25.243 38.897 27.339 67.919 2.239 30.987-3.908 68.714-17.773 109.102-7.546 21.98-17.146 44.397-28.613 66.978-29.697-41.831-64.408-82.879-103.212-121.685-38.817-38.818-79.877-73.54-121.721-103.245 22.592-11.475 45.017-21.08 67.006-28.63zM762.86 511.979c-30.864 47.279-69.126 94.182-113.186 138.244-44.052 44.054-90.945 82.312-138.214 113.174-47.269-30.862-94.162-69.12-138.215-113.174-44.059-44.061-82.321-90.964-113.186-138.244 30.864-47.279 69.126-94.182 113.186-138.243 44.053-44.054 90.946-82.313 138.215-113.175 47.269 30.862 94.162 69.121 138.214 113.175 44.06 44.061 82.322 90.964 113.186 138.243zM194.746 381.815c-13.866-40.388-20.012-78.115-17.774-109.102 2.096-29.022 11.295-51.873 27.339-67.919 16.041-16.042 38.884-25.238 67.896-27.334 30.986-2.233 68.699 3.909 109.079 17.772 21.989 7.55 44.415 17.155 67.006 28.63-41.844 29.705-82.904 64.427-121.72 103.245-38.804 38.806-73.515 79.854-103.213 121.685-11.467-22.58-21.067-44.997-28.613-66.977z m186.54 446.91c-40.38 13.865-78.098 20.016-109.079 17.773-29.011-2.095-51.855-11.293-67.896-27.334-16.045-16.044-25.243-38.896-27.339-67.918-2.238-30.987 3.908-68.714 17.774-109.103 7.546-21.98 17.146-44.397 28.614-66.979 29.698 41.831 64.409 82.879 103.213 121.685 38.816 38.818 79.876 73.54 121.72 103.245-22.592 11.476-45.018 21.081-67.007 28.631z m464.661-77.48c-2.096 29.022-11.294 51.873-27.339 67.919-16.04 16.041-38.883 25.238-67.895 27.333-30.974 2.241-68.698-3.908-109.079-17.773-21.989-7.55-44.415-17.155-67.006-28.63 41.844-29.705 82.904-64.427 121.721-103.245 38.804-38.806 73.515-79.854 103.212-121.685 11.467 22.582 21.067 44.998 28.614 66.979 13.865 40.388 20.011 78.115 17.772 109.102z" p-id="11213"></path></svg>