<?xml version="1.0" standalone="no"?><!DOCTYPE svg PUBLIC "-//W3C//DTD SVG 1.1//EN" "http://www.w3.org/Graphics/SVG/1.1/DTD/svg11.dtd"><svg t="1583320281935" class="icon" viewBox="0 0 1024 1024" version="1.1" xmlns="http://www.w3.org/2000/svg" p-id="4998" xmlns:xlink="http://www.w3.org/1999/xlink" width="200" height="200"><defs><style type="text/css"></style></defs><path d="M204.8 396.8 307.2 456.533333 409.6 512 512 567.466667 614.4 512 716.8 456.533333 819.2 396.8 921.6 341.333333 1024 285.866667 512 0 0 285.866667 102.4 341.333333ZM819.2 512 716.8 567.466667 512 682.666667 307.2 567.466667 204.8 512 102.4 456.533333 0 512 102.4 567.466667 204.8 627.2 512 797.866667 819.2 627.2 921.6 567.466667 1024 512 921.6 456.533333ZM512 908.8 102.4 682.666667 0 738.133333 512 1024 1024 738.133333 921.6 682.666667Z" p-id="4999"></path></svg>