<?xml version="1.0" standalone="no"?><!DOCTYPE svg PUBLIC "-//W3C//DTD SVG 1.1//EN" "http://www.w3.org/Graphics/SVG/1.1/DTD/svg11.dtd"><svg t="1583322510607" class="icon" viewBox="0 0 1027 1024" version="1.1" xmlns="http://www.w3.org/2000/svg" p-id="7996" xmlns:xlink="http://www.w3.org/1999/xlink" width="200.5859375" height="200"><defs><style type="text/css"></style></defs><path d="M546.133333 733.866667c0-10.24-6.826667-17.066667-17.066666-17.066667H17.066667c-10.24 0-17.066667 6.826667-17.066667 17.066667s6.826667 17.066667 17.066667 17.066666h13.653333L0 1003.52c0 10.24 6.826667 20.48 13.653333 20.48h3.413334c6.826667 0 17.066667-6.826667 17.066666-13.653333l17.066667-136.533334C85.333333 962.56 170.666667 1024 273.066667 1024s187.733333-61.44 221.866666-150.186667l17.066667 136.533334c0 10.24 6.826667 13.653333 17.066667 13.653333h3.413333c10.24 0 17.066667-10.24 13.653333-20.48l-30.72-252.586667h13.653334c10.24 0 17.066667-6.826667 17.066666-17.066666zM989.866667 866.986667s0-3.413333 0 0c17.066667-23.893333 30.72-51.2 34.133333-81.92h-303.786667c3.413333 30.72 17.066667 58.026667 34.133334 78.506666l-34.133334 136.533334c-3.413333 10.24 3.413333 17.066667 13.653334 20.48h3.413333c6.826667 0 13.653333-6.826667 17.066667-13.653334L785.066667 887.466667c23.893333 17.066667 54.613333 30.72 88.746666 30.72s64.853333-10.24 88.746667-30.72l30.72 119.466666c3.413333 6.826667 10.24 13.653333 17.066667 13.653334h3.413333c10.24-3.413333 13.653333-10.24 13.653333-20.48L989.866667 866.986667zM273.066667 0C139.946667 0 34.133333 105.813333 34.133333 238.933333h477.866667c0-133.12-105.813333-238.933333-238.933333-238.933333z" fill="" p-id="7997"></path><path d="M716.8 375.466667v303.786666c-51.2-10.24-68.266667-64.853333-68.266667-116.053333V477.866667c0-71.68-61.44-126.293333-136.533333-136.533334V307.2h17.066667c10.24 0 17.066667-6.826667 17.066666-17.066667s-6.826667-17.066667-17.066666-17.066666H17.066667c-10.24 0-17.066667 6.826667-17.066667 17.066666s6.826667 17.066667 17.066667 17.066667H34.133333v375.466667h477.866667v-307.2c51.2 6.826667 102.4 44.373333 102.4 102.4v85.333333c0 85.333333 40.96 143.36 102.4 150.186667V750.933333h307.2V375.466667h-307.2z" fill="" p-id="7998"></path><path d="M870.4 204.8c-78.506667 0-143.36 61.44-150.186667 136.533333H1024c-10.24-75.093333-75.093333-136.533333-153.6-136.533333z" fill="" p-id="7999"></path></svg>