<?xml version="1.0" standalone="no"?><!DOCTYPE svg PUBLIC "-//W3C//DTD SVG 1.1//EN" "http://www.w3.org/Graphics/SVG/1.1/DTD/svg11.dtd"><svg t="1582179569525" class="icon" viewBox="0 0 1445 1024" version="1.1" xmlns="http://www.w3.org/2000/svg" p-id="3449" xmlns:xlink="http://www.w3.org/1999/xlink" width="282.2265625" height="200"><defs><style type="text/css"></style></defs><path d="M1192.392489 518.977589h-1.550575a78.769231 78.769231 0 0 1 5.271956 27.7553 75.513022 75.513022 0 0 1-5.737129 28.99576c104.66384 3.721381 189.1702 90.243489 189.1702 195.682617 0 107.920048-88.227741 196.147789-196.147789 196.147789H621.005451C513.085403 967.559055 424.857662 879.331314 424.857662 771.411266s86.211993-193.821926 192.426408-195.837674a77.683828 77.683828 0 0 1-5.737129-28.840703 75.66808 75.66808 0 0 1 5.427014-27.7553h-17.366444c-138.931557 0-252.588734 113.657177-252.588735 252.433677s113.657177 252.588734 252.588735 252.588734H1192.392489c138.931557 0 252.433677-113.657177 252.433677-252.588734S1331.324046 518.977589 1192.392489 518.977589z" fill="#231815" p-id="3450"></path><path d="M963.062386 210.568141a311.820715 311.820715 0 0 0-62.953361-6.35736c-173.509388 0-314.146578 140.63719-314.146578 313.991521a315.076923 315.076923 0 0 0 5.892187 59.542095c1.395518-0.310115 36.903695-5.892187 65.279224-9.613567a252.433677 252.433677 0 0 1-4.961841-49.928528 247.937008 247.937008 0 0 1 247.937008-247.937008 245.145972 245.145972 0 0 1 56.75106 6.822532zM1137.192005 445.635373a243.905512 243.905512 0 0 1 10.854028 72.566929 252.123561 252.123561 0 0 1-5.582072 52.254391h0.155058l65.899455 6.822532a320.658995 320.658995 0 0 0 5.737129-59.076923 313.836463 313.836463 0 0 0-10.698971-79.699576z" fill="#231815" p-id="3451"></path><path d="M957.480315 243.440339m-33.492429 0a33.492429 33.492429 0 1 0 66.984858 0 33.492429 33.492429 0 1 0-66.984858 0Z" fill="#231815" p-id="3452"></path><path d="M610.306481 39.384615m-33.492429 0a33.492429 33.492429 0 1 0 66.984858 0 33.492429 33.492429 0 1 0-66.984858 0Z" fill="#231815" p-id="3453"></path><path d="M1170.839491 443.309509m-33.492429 0a33.492429 33.492429 0 1 0 66.984858 0 33.492429 33.492429 0 1 0-66.984858 0Z" fill="#231815" p-id="3454"></path><path d="M256.930345 762.572986c-100.012114-8.683222-179.246517-93.034525-179.246517-195.217444 0-106.524531 86.211993-193.821926 192.426408-195.837674a77.683828 77.683828 0 0 1-5.737129-28.840703 78.924288 78.924288 0 0 1 5.427014-27.755299h-17.366444C113.50212 314.921866 0 428.579043 0 567.355542s113.50212 252.433677 252.433677 252.433677h4.496668z" fill="#231815" p-id="3455"></path><path d="M238.943671 314.146578a312.285887 312.285887 0 0 0 5.737129 59.387038c1.395518-0.155058 36.903695-5.737129 65.279224-9.613568a248.247123 248.247123 0 0 1 242.975167-297.710478 253.674137 253.674137 0 0 1 56.75106 6.667474l6.202301-66.519685A323.45003 323.45003 0 0 0 552.935191 0C379.58086 0 238.943671 140.63719 238.943671 314.146578z" fill="#231815" p-id="3456"></path></svg>